<svg id="Capa_1" enable-background="new 0 0 512 512" height="512" viewBox="0 0 512 512" width="512" xmlns="http://www.w3.org/2000/svg"><g><path d="m374.315 424.651c-38.866 33.36-89.388 53.525-144.624 53.525h274.795v-53.525z" fill="#8c808a"/><path d="m229.69 33.824c-122.704 0-222.175 99.472-222.175 222.176s99.471 222.176 222.176 222.176c122.704 0 222.176-99.471 222.176-222.176s-99.473-222.176-222.177-222.176zm-.001 48.004c26.802 0 48.535 21.733 48.535 48.535 0 1.503-.07 2.996-.21 4.469-2.254 24.708-23.025 44.066-48.324 44.066s-46.07-19.358-48.324-44.066c-.14-1.473-.21-2.966-.21-4.469-.002-26.802 21.73-48.535 48.533-48.535zm-165.474 118.522c8.627-25.38 36.191-38.956 61.57-30.329 1.493.511 2.946 1.082 4.358 1.723 22.544 10.14 34.087 35.96 25.971 59.847-8.076 23.746-32.714 37.163-56.641 31.722-1.653-.371-3.296-.832-4.93-1.393-25.378-8.627-38.954-36.191-30.328-61.57zm123.952 179.31c-1.032 1.553-2.174 3.066-3.417 4.519-17.384 20.4-48.024 22.845-68.424 5.461s-22.845-48.024-5.461-68.424c1.172-1.383 2.415-2.675 3.697-3.898 17.785-16.743 45.709-17.775 64.726-1.563 18.949 16.142 22.406 43.705 8.879 63.905zm41.523-94.463c-16.125 0-29.197-13.072-29.197-29.197s13.072-29.197 29.197-29.197 29.197 13.072 29.197 29.197-13.072 29.197-29.197 29.197zm113.36 104.442c-20.4 17.384-51.03 14.939-68.424-5.461-1.242-1.453-2.385-2.966-3.417-4.519-13.526-20.189-10.07-47.763 8.887-63.905 19.017-16.212 46.932-15.18 64.716 1.563 1.283 1.222 2.525 2.515 3.697 3.898 17.386 20.4 14.941 51.04-5.459 68.424zm21.793-127.719c-1.643.561-3.286 1.022-4.94 1.393-23.917 5.431-48.575-7.975-56.641-31.722-8.116-23.887 3.427-49.707 25.971-59.847 1.413-.641 2.866-1.212 4.358-1.723 25.38-8.627 52.944 4.95 61.58 30.329 8.628 25.379-4.959 52.943-30.328 61.57z" fill="#ffc265"/><path d="m374.315 424.651c-38.866 33.36-89.388 53.524-144.624 53.524h98.394c28.887-12.812 54.808-31.089 76.454-53.524z" fill="#7b7179"/><g><g><path d="m229.69 451.123c-118.161 0-214.761-92.246-221.754-208.649-.269 4.476-.422 8.983-.422 13.526 0 122.704 99.471 222.176 222.176 222.176 122.704 0 222.176-99.471 222.176-222.176 0-4.543-.153-9.051-.422-13.526-6.993 116.403-103.593 208.649-221.754 208.649z" fill="#ffb541"/></g></g><g fill="#8c808a"><path d="m99.474 263.313c-.13-2.425-.2-4.86-.2-7.314 0-32.123 11.613-61.53 30.87-84.255 22.544 10.14 34.087 35.96 25.971 59.847-8.076 23.746-32.714 37.162-56.641 31.722z"/><path d="m188.167 379.66c-31.762-10.651-58.053-33.195-73.604-62.342 17.785-16.743 45.709-17.775 64.726-1.563 18.948 16.142 22.405 43.705 8.878 63.905z"/><path d="m229.689 178.898c-25.299 0-46.07-19.358-48.324-44.066 14.939-5.962 31.251-9.248 48.324-9.248s33.385 3.286 48.324 9.248c-2.254 24.708-23.025 44.066-48.324 44.066z"/><path d="m344.814 317.318c-15.55 29.147-41.842 51.691-73.604 62.342-13.526-20.189-10.07-47.763 8.887-63.905 19.017-16.212 46.932-15.18 64.717 1.563z"/></g><path d="m263.093 355.039c.409 8.583 3.086 17.113 8.116 24.621 31.762-10.651 58.053-33.195 73.604-62.342-3.673-3.458-7.782-6.234-12.151-8.338-17.28 22.201-41.581 38.664-69.569 46.059z" fill="#7b7179"/><path d="m126.718 308.979c-4.37 2.104-8.481 4.881-12.154 8.339 15.55 29.147 41.842 51.691 73.604 62.342 5.03-7.511 7.707-16.04 8.117-24.622-27.988-7.396-52.288-23.858-69.567-46.059z" fill="#7b7179"/><path d="m360.103 255.998c0 2.455-.07 4.889-.2 7.314-23.917 5.431-48.575-7.976-56.641-31.722-8.116-23.887 3.427-49.707 25.971-59.847 19.258 22.725 30.87 52.133 30.87 84.255z" fill="#8c808a"/><g><path d="m504.485 417.137h-111.131c42.585-43.235 66.027-100.381 66.027-161.137 0-75.283-36.977-145.881-98.913-188.849-3.409-2.367-8.092-1.518-10.457 1.891-2.366 3.41-1.519 8.092 1.891 10.457 57.888 40.161 92.449 106.143 92.449 176.501 0 57.338-22.329 111.244-62.873 151.788s-94.45 62.873-151.788 62.873c-34.225 0-66.932-7.813-97.212-23.22-28.89-14.7-54.522-36.176-74.127-62.106-2.502-3.31-7.216-3.965-10.526-1.462s-3.965 7.216-1.462 10.526c20.97 27.736 48.392 50.709 79.299 66.436 32.412 16.492 67.412 24.855 104.028 24.855h168.076c4.15 0 7.515-3.365 7.515-7.515s-3.365-7.515-7.515-7.515h-86.032c23.603-9.011 45.652-21.959 65.348-38.495h119.888v38.495h-69.145c-4.15 0-7.515 3.364-7.515 7.515s3.364 7.515 7.515 7.515h76.66c4.15 0 7.515-3.365 7.515-7.515v-53.524c0-4.15-3.365-7.514-7.515-7.514z"/><path d="m15.029 256c0-57.338 22.329-111.244 62.873-151.788s94.45-62.873 151.788-62.873c34.253 0 66.985 7.825 97.285 23.257 3.696 1.882 8.222.412 10.107-3.286 1.884-3.698.412-8.223-3.286-10.107-32.433-16.518-67.459-24.893-104.106-24.893-61.352 0-119.033 23.892-162.415 67.274-43.383 43.383-67.275 101.063-67.275 162.416 0 39.394 10.144 78.262 29.336 112.401 2.165 3.851 7.347 4.997 10.94 2.418 3.069-2.203 4.01-6.492 2.161-9.783-17.93-31.895-27.408-68.216-27.408-105.036z"/><path d="m111.453 395.359c10.535 8.977 23.455 13.366 36.317 13.366 15.86 0 31.627-6.678 42.691-19.662 1.429-1.671 2.763-3.435 3.965-5.245 15.801-23.62 11.391-55.335-10.262-73.781-21.79-18.574-53.926-17.797-74.786 1.842-1.571 1.497-2.959 2.961-4.232 4.463-20.046 23.524-17.217 58.971 6.307 79.017zm62.964-73.884c14.358 12.232 18.358 32.429 10.387 48.969-25.371-9.925-46.563-27.877-60.589-51.326 7.043-4.971 15.298-7.475 23.572-7.475 9.45 0 18.924 3.263 26.63 9.832zm-60.957 8.817c14.987 23.478 36.531 41.728 62.099 52.604-15.029 13.83-38.426 14.601-54.357 1.024-15.864-13.519-18.856-36.603-7.742-53.628z"/><path d="m402.286 197.929c-9.956-29.254-41.854-44.967-71.129-35.018-1.746.598-3.438 1.267-5.006 1.979-26.451 11.897-39.349 41.611-30.003 69.117 7.876 23.186 29.407 38.044 52.914 38.044 4.121 0 8.307-.457 12.487-1.406 1.928-.433 3.854-.975 5.723-1.614 29.25-9.953 44.958-41.846 35.014-71.102zm-91.909 31.244c-6.214-18.289 1.003-37.906 16.9-47.876 16.36 21.359 25.311 47.653 25.311 74.702 0 .28-.01.57-.012.852-1.164.099-2.325.164-3.479.164-17.202-.002-32.957-10.876-38.72-27.842zm57.197 23.47c-.676-27.721-9.715-54.589-25.791-77.007 2.469-.456 4.941-.686 7.392-.686 17.086 0 33.079 10.767 38.882 27.818 6.67 19.622-2.436 40.857-20.483 49.875z"/><path d="m268.908 389.054c11.075 12.989 26.844 19.666 42.708 19.666 12.859 0 25.78-4.389 36.309-13.361 23.523-20.047 26.353-55.494 6.318-79.003-1.286-1.517-2.674-2.981-4.278-4.51-20.825-19.604-52.957-20.382-74.74-1.813-21.675 18.456-26.085 50.187-10.275 73.784 1.203 1.81 2.536 3.575 3.958 5.237zm69.268-5.134c-15.924 13.57-39.314 12.801-54.354-1.025 25.567-10.876 47.111-29.127 62.097-52.604 11.114 17.014 8.125 40.106-7.743 53.629zm-53.204-62.446c7.708-6.571 17.184-9.833 26.635-9.833 8.273 0 16.526 2.504 23.558 7.473-14.026 23.451-35.22 41.405-60.593 51.33-7.974-16.538-3.969-36.735 10.4-48.97z"/><path d="m191.803 171.666c10.36 9.509 23.815 14.746 37.886 14.746 14.072 0 27.527-5.237 37.886-14.746 10.293-9.448 16.658-22.286 17.92-36.124.162-1.704.244-3.447.244-5.18 0-30.906-25.144-56.05-56.05-56.05s-56.05 25.144-56.05 56.05c0 1.732.082 3.475.242 5.152 1.264 13.866 7.63 26.705 17.922 36.152zm37.886-.283c-19.421 0-35.702-13.251-39.942-31.648 12.815-4.405 26.223-6.637 39.942-6.637 13.72 0 27.128 2.232 39.944 6.637-4.231 18.387-20.516 31.648-39.944 31.648zm0-82.041c20.502 0 37.539 15.119 40.548 34.794-13.083-4.024-26.675-6.067-40.548-6.067s-27.465 2.043-40.549 6.067c3.009-19.674 20.046-34.794 40.549-34.794z"/><path d="m110.314 272.051c23.504 0 45.032-14.858 52.916-38.043 9.346-27.506-3.552-57.221-29.979-69.107-1.592-.723-3.284-1.392-5.047-1.996-29.262-9.946-61.158 5.768-71.104 35.026-4.818 14.175-3.829 29.377 2.786 42.806s18.065 23.478 32.217 28.289c1.858.638 3.785 1.183 5.704 1.614 4.189.952 8.378 1.411 12.507 1.411zm38.687-42.88c-6.157 18.104-23.673 29.271-42.2 27.693-.002-.286-.012-.581-.012-.865 0-27.049 8.952-53.344 25.313-74.703 15.889 9.959 23.114 29.582 16.899 47.875zm-75.632 4.925c-4.841-9.828-5.565-20.954-2.039-31.328 6.63-19.505 26.588-30.777 46.267-27.135-16.078 22.42-25.118 49.29-25.794 77.014-7.985-3.978-14.425-10.412-18.434-18.551z"/><path d="m266.402 256c0-20.243-16.469-36.712-36.712-36.712s-36.712 16.469-36.712 36.712 16.469 36.712 36.712 36.712c20.244 0 36.712-16.469 36.712-36.712zm-58.394 0c0-11.956 9.727-21.682 21.683-21.682s21.682 9.727 21.682 21.682-9.727 21.682-21.682 21.682c-11.957 0-21.683-9.726-21.683-21.682z"/></g></g></svg>