<svg id="Layer_1" enable-background="new 0 0 512 512" height="512" viewBox="0 0 512 512" width="512" xmlns="http://www.w3.org/2000/svg"><path d="m512 239.963v256c0 8.84-7.16 16-16 16h-480c-8.84 0-16-7.16-16-16v-256c0-5.88 3.17-11.02 7.89-13.8 5.812-3.419-24.017-2.2 488.11-2.2 8.84 0 16 7.16 16 16z" fill="#d3cdcd"/><path d="m512 239.963v207h-224c-135.379 0-249.779-93.676-280.11-220.8 5.812-3.419-24.017-2.2 488.11-2.2 8.84 0 16 7.16 16 16z" fill="#ece2e2"/><g fill="#999"><path d="m352 447.963h-192c-8.837 0-16-7.163-16-16s7.163-16 16-16h192c8.837 0 16 7.163 16 16s-7.163 16-16 16z"/><path d="m432 447.963h-16c-8.837 0-16-7.163-16-16s7.163-16 16-16h16c8.837 0 16 7.163 16 16s-7.163 16-16 16z"/><path d="m96 447.963h-16c-8.837 0-16-7.163-16-16s7.163-16 16-16h16c8.837 0 16 7.163 16 16s-7.163 16-16 16z"/><circle cx="224" cy="367.963" r="16"/><circle cx="160" cy="367.963" r="16"/><circle cx="96" cy="367.963" r="16"/><circle cx="288" cy="367.963" r="16"/><circle cx="352" cy="367.963" r="16"/><circle cx="416" cy="367.963" r="16"/><circle cx="224" cy="303.963" r="16"/><circle cx="160" cy="303.963" r="16"/><circle cx="96" cy="303.963" r="16"/><circle cx="288" cy="303.963" r="16"/><circle cx="352" cy="303.963" r="16"/><circle cx="416" cy="303.963" r="16"/></g><circle cx="256" cy="151.963" fill="#80aaff" r="24"/><path d="m312.568 119.394c-4.095 0-8.189-1.563-11.313-4.687-24.953-24.953-65.557-24.953-90.51 0-6.248 6.248-16.379 6.248-22.627 0-6.249-6.248-6.249-16.379 0-22.627 37.514-37.516 98.242-37.523 135.764 0 10.109 10.109 2.812 27.314-11.314 27.314z" fill="#80aaff"/><path d="m357.823 74.139c-4.095 0-8.189-1.563-11.313-4.687-49.908-49.906-131.111-49.906-181.02 0-6.248 6.248-16.379 6.248-22.627 0-6.249-6.248-6.249-16.379 0-22.627 62.383-62.385 163.891-62.385 226.273 0 10.11 10.109 2.813 27.314-11.313 27.314z" fill="#80aaff"/></svg>